<?xml version="1.0" encoding="UTF-8"?>
<svg version="1.1" xmlns="http://www.w3.org/2000/svg" width="48" height="48">
<path d="M0 0 C4.68796317 2.8950501 8.77605467 6.42344712 10.234375 11.89453125 C11.16656452 18.74158704 11.3930195 24.99387098 7.671875 31.01953125 C3.66347868 35.99068326 0.31000422 38.47580101 -6.0078125 39.3359375 C-13.1275177 39.69575056 -18.34453314 39.19135672 -23.98828125 34.640625 C-29.08369757 29.63479842 -30.03494232 26.05750776 -30.390625 19.01953125 C-30.17838344 12.13997715 -28.58962241 7.80486419 -23.765625 2.89453125 C-17.29271618 -2.6344117 -7.84970384 -3.13766411 0 0 Z " fill="#BE194B" transform="translate(33.765625,5.10546875)"/>
<path d="M0 0 C1.80795432 4.0916861 2.21156222 7.55719328 2 12 C-1.43856978 13.71928489 -5.23248896 13.38974252 -9 13 C-12.0625 11.5 -12.0625 11.5 -14 10 C-12.67993386 5.81860131 -11.23241386 3.99929566 -7.5625 1.625 C-6.78003906 1.10164063 -5.99757813 0.57828125 -5.19140625 0.0390625 C-3 -1 -3 -1 0 0 Z " fill="#EB3473" transform="translate(28,28)"/>
<path d="M0 0 C0.33 0.99 0.66 1.98 1 3 C0.33613281 3.37511719 -0.32773437 3.75023437 -1.01171875 4.13671875 C-5.97521791 7.01337447 -10.1966599 9.68954789 -14 14 C-17.53790403 10.30827405 -17.59115883 6.90609405 -18 2 C-15.56281065 1.66424944 -13.12529385 1.33130715 -10.6875 1 C-9.99720703 0.90460937 -9.30691406 0.80921875 -8.59570312 0.7109375 C-5.70352927 0.31972558 -2.92235023 0 0 0 Z " fill="#EA3472" transform="translate(25,21)"/>
<path d="M0 0 C4.20763224 1.5027258 5.8027758 4.23332995 8 8 C8 8.66 8 9.32 8 10 C3.03926578 11.32286246 -1.91111512 11.08893197 -7 11 C-6.58485103 6.1565954 -4.53791301 4.18412171 -1 1 C-0.67 0.67 -0.34 0.34 0 0 Z " fill="#EA3473" transform="translate(15,9)"/>
<path d="M0 0 C6.40141012 -0.51211281 9.98010898 -0.11888494 15 4 C10.17857143 9.22321429 10.17857143 9.22321429 6 10 C4.99723227 8.52270825 3.99785546 7.04311423 3 5.5625 C2.443125 4.73878906 1.88625 3.91507813 1.3125 3.06640625 C0 1 0 1 0 0 Z " fill="#EA3472" transform="translate(20,7)"/>
<path d="M0 0 C2.23717257 3.29688589 2 4.71354382 2 9 C-1.96 8.67 -5.92 8.34 -10 8 C-10 4 -10 4 -8.57421875 2.48046875 C-7.95160156 2.05378906 -7.32898438 1.62710937 -6.6875 1.1875 C-5.76517578 0.52814453 -5.76517578 0.52814453 -4.82421875 -0.14453125 C-3 -1 -3 -1 0 0 Z " fill="#EA3472" transform="translate(39,15)"/>
<path d="M0 0 C3.3 0 6.6 0 10 0 C9.55946315 4.84590538 7.25494123 8.48141867 4 12 C3.34 12 2.68 12 2 12 C1.34 8.04 0.68 4.08 0 0 Z " fill="#E93472" transform="translate(31,26)"/>
</svg>
